<svg xmlns="http://www.w3.org/2000/svg" width="20" height="24" viewBox="0 0 20 24" fill="none">
  <path d="M4 1.2001L1 5.4989V20.5447C1 21.1148 1.21071 21.6615 1.58579 22.0646C1.96086 22.4676 2.46957 22.6941 3 22.6941H17C17.5304 22.6941 18.0391 22.4676 18.4142 22.0646C18.7893 21.6615 19 21.1148 19 20.5447V5.4989L16 1.2001H4Z" stroke="black" stroke-width="2" stroke-linecap="round" stroke-linejoin="round"/>
  <path d="M1 5.4989H19" stroke="black" stroke-width="2" stroke-linecap="round" stroke-linejoin="round"/>
  <path d="M14 9.7977C14 10.9378 13.5786 12.0312 12.8284 12.8374C12.0783 13.6436 11.0609 14.0965 10 14.0965C8.93913 14.0965 7.92172 13.6436 7.17157 12.8374C6.42143 12.0312 6 10.9378 6 9.7977" stroke="black" stroke-width="2" stroke-linecap="round" stroke-linejoin="round"/>
</svg>
