<svg xmlns="http://www.w3.org/2000/svg" width="27" height="30" viewBox="0 0 27 30" fill="none">
  <path d="M26.5862 27.0803L20.4654 20.5023C21.939 18.394 22.7345 15.8278 22.7318 13.191C22.7318 6.45568 17.633 0.976013 11.3659 0.976013C5.09879 0.976013 0 6.45568 0 13.191C0 19.9262 5.09879 25.4059 11.3659 25.4059C13.8195 25.4088 16.2073 24.5539 18.1691 22.9702L24.2898 29.5482C24.5997 29.8458 25.0038 30.0047 25.4192 29.9922C25.8346 29.9797 26.2298 29.7968 26.5237 29.481C26.8175 29.1652 26.9877 28.7405 26.9994 28.294C27.011 27.8476 26.8631 27.4133 26.5862 27.0803ZM3.24741 13.191C3.24741 11.4653 3.72355 9.77845 4.61562 8.34364C5.5077 6.90882 6.77563 5.79052 8.2591 5.13015C9.74256 4.46978 11.3749 4.29699 12.9498 4.63365C14.5246 4.9703 15.9712 5.80127 17.1066 7.02148C18.242 8.24169 19.0152 9.79633 19.3284 11.4888C19.6417 13.1813 19.4809 14.9356 18.8664 16.5299C18.252 18.1241 17.2114 19.4868 15.8763 20.4455C14.5412 21.4042 12.9716 21.9159 11.3659 21.9159C9.21355 21.9132 7.15007 20.993 5.62812 19.3574C4.10616 17.7217 3.24999 15.5041 3.24741 13.191Z" fill="black"/>
</svg>
